PathFileType	4	(X/Y/Z)	C:/Users/beibeiliu/ov580/test_trc/User1\sequence.27_training_dense_left.trc
DataRate	CameraRate	NumFrames	NumMarkers	Units	OrigDataRate	OrigDataStartFrame	OrigNumFrames
120	120	15	19	mm	120	98	259
Frame#	Time	ThumbCMC			ThumbMCP			ThumbIP			ThumbTip			IndexMCP			IndexPIP			IndexTip			MiddleMCP			MiddlePIP			MiddleTip			RingMCP			RingPIP			RingTip			PinkyMCP			PinkyPIP			PinkyTip			BackHand1			BackHand2			BackHand3	
		X0	Y0	Z0	X1	Y1	Z1	X2	Y2	Z2	X3	Y3	Z3	X4	Y4	Z4	X5	Y5	Z5	X6	Y6	Z6	X7	Y7	Z7	X8	Y8	Z8	X9	Y9	Z9	X10	Y10	Z10	X11	Y11	Z11	X12	Y12	Z12	X13	Y13	Z13	X14	Y14	Z14	X15	Y15	Z15	X16	Y16	Z16	X17	Y17	Z17	X18	Y18	Z18	
97	0.808333	-176.752	24.8776	69.4494	-156.013	41.4875	44.0375	-144.603	46.5853	20.3624	-130.508	54.2945	-3.65032	-186.248	-22.2963	5.88377	-186.828	-37.1049	-22.5007	-183.188	-50.5955	-45.1833	-163.39	-50.076	6.4336	-157.641	-59.5366	-25.1976	-144.806	-64.4479	-51.4863	-128.531	-39.4795	10.7197	-103.478	-17.5156	4.80618	-101.178	6.70124	27.5095	-111.558	-39.4803	34.2963	-102.634	-9.96526	34.1228	-117.583	8.87241	55.7984	-162.368	-43.9264	65.8497	-164.899	-35.6184	103.324	-186.116	-17.2886	70.9573	
98	0.816667	-179.431	28.6121	68.8746	-157.485	46.5029	44.2634	-145.32	49.8971	16.026	-131.361	53.3993	-1.024	-184.036	-23.2839	5.625	-185.322	-36.3846	-22.3565	-182.358	-48.7283	-43.0513	-164.549	-48.6293	4.8582	-159.472	-56.7641	-22.0714	-143.068	-64.4525	-53.3636	-127.05	-39.059	11.4024	-104.181	-17.5104	5.88655	-104.475	6.93969	27.6097	-112.319	-38.0109	34.9453	-104.044	-9.60221	35.2914	-120.864	8.48082	58.2537	-160.425	-43.6718	65.436	-164.508	-35.3936	102.993	-187.447	-12.672	74.2314	
99	0.825	-177.66	25.1346	66.0099	-157.565	43.9785	41.1697	-146.748	52.2418	18.6558	-131.745	57.4172	0.188343	-184.131	-24.8625	2.70529	-185.117	-35.7138	-18.8928	-181.61	-48.9421	-44.0561	-164.656	-48.4386	5.65231	-158.103	-57.3933	-25.854	-142.977	-63.302	-54.9241	-125.278	-38.2317	10.2684	-106.665	-13.0946	4.59919	-108.808	9.55978	28.8282	-114.966	-38.1617	34.7967	-103.365	-9.99959	34.9229	-121.524	5.94006	55.6593	-160.176	-45.108	67.4118	-165.856	-34.9807	99.3867	-187.741	-16.3969	75.1282	
100	0.833333	-177.692	26.6496	70.9666	-158.358	45.8488	41.4506	-147.446	52.2038	19.5655	-133.736	60.3058	-0.39802	-184.82	-22.5966	3.71209	-184.025	-35.1471	-19.0016	-180.292	-50.4312	-45.1926	-164.389	-50.3029	1.04219	-158.072	-57.5071	-24.6393	-143.398	-60.5193	-55.5088	-128.808	-38.0396	11.1278	-107.803	-12.4798	4.19175	-109.235	10.0612	32.489	-110.158	-37.4399	35.3639	-104.769	-8.43593	34.9732	-122.968	6.75901	57.5014	-159.817	-44.7645	65.7724	-166.748	-32.4121	101.789	-187.408	-13.5066	72.0387	
101	0.841667	-178.681	26.7397	64.8785	-157.34	42.0296	43.5263	-146.756	48.803	18.75	-134.56	58.5191	-0.80241	-185.571	-22.3792	2.37328	-185.093	-33.3806	-20.0153	-179.829	-51.2403	-46.3462	-165.653	-46.9486	3.71922	-155.471	-57.7451	-28.0512	-140.03	-61.4173	-52.5459	-128.753	-36.882	9.18709	-104.834	-9.91476	7.57283	-109.119	9.20845	32.6422	-111.326	-37.4104	34.2826	-105.637	-9.40559	34.5517	-123.269	5.94481	60.3107	-161.878	-44.453	65.5807	-165.02	-35.5157	97.3514	-189.719	-15.4688	68.4139	
102	0.85	-179.953	27.4154	64.8916	-159.733	44.0936	39.4712	-148.356	50.1312	18.0971	-135.43	58.4508	-2.26418	-187.87	-22.5791	-0.9944	-186.395	-33.6394	-22.9821	-179.658	-47.7765	-43.9608	-165.296	-49.4476	1.30011	-160.211	-54.5584	-28.5174	-141.582	-59.5731	-54.3828	-127.463	-38.4109	10.9516	-107.249	-9.99699	5.87626	-108.323	8.38109	33.2434	-115.214	-37.526	34.0243	-107.208	-7.94666	35.5054	-121.867	6.36995	60.3555	-161.223	-45.1684	64.3395	-168.75	-33.6104	95.7981	-188.263	-17.382	69.053	
103	0.858333	-178.067	25.1507	66.4226	-160.576	42.5905	42.3282	-150.792	53.0968	18.0757	-137.9	59.8085	-3.42831	-185.91	-23.2108	0.55933	-184.848	-34.5333	-24.1481	-180.283	-46.1904	-48.3849	-166.822	-47.6018	0.898266	-158.09	-56.1099	-29.3415	-144.102	-58.0359	-53.1387	-131.025	-37.81	8.455	-108.508	-13.3828	2.43206	-108.362	8.37992	30.2687	-114.317	-37.7799	31.9803	-106.739	-8.84838	33.2697	-121.73	9.82692	56.0123	-161.698	-43.8358	63.4458	-169.045	-34.1752	95.6204	-187.78	-16.451	69.1434	
104	0.866667	-179.925	26.4372	68.8752	-161.642	42.1765	40.8291	-152.476	53.4835	17.1195	-139.63	59.7612	-6.30714	-186.76	-21.4351	-0.3244	-183.528	-34.2279	-26.1561	-177.676	-46.7197	-50.3257	-166.804	-47.8173	1.56988	-160.975	-55.2854	-27.817	-144.109	-58.355	-57.8899	-130.553	-41.5173	6.20139	-110	-20.7716	-3.09284	-104.442	6.17856	19.9385	-117.613	-41.1603	34.1468	-104.812	-13.3727	29.249	-112.577	11.2997	48.2935	-163.404	-45.9483	64.2972	-169.982	-36.3928	101.361	-189.7	-12.1456	70.3525	
105	0.875	-180.979	24.9551	66.3368	-163.353	44.0902	43.1252	-153.32	49.5506	17.2878	-142.564	59.898	0.947777	-186.963	-17.8822	-1.21722	-182.504	-31.1069	-23.1976	-178.479	-41.8715	-51.9345	-171.685	-43.3887	0.109936	-164.502	-53.0661	-26.6432	-150.483	-58.0237	-56.6459	-138.31	-44.7261	10.3971	-112.158	-25.271	-9.02664	-97.3377	1.35372	7.91326	-115.334	-43.4928	34.1809	-101.061	-19.3455	25.816	-108.227	8.72172	36.4255	-167.051	-41.3366	64.3008	-173.496	-33.5363	99.4875	-187.868	-15.6969	67.4493	
106	0.883333	-183.426	30.3979	67.0294	-165.599	49.2993	45.1792	-154.621	53.788	17.8126	-141.715	61.2828	-3.78422	-186.191	-17.709	-4.59671	-183.778	-27.5677	-27.4952	-176.112	-37.2747	-51.7331	-171.496	-45.0615	-2.49695	-165.813	-51.5587	-27.6739	-152.801	-61.0484	-56.9909	-142.014	-46.9911	9.5065	-116.503	-38.2264	-11.7721	-95.1721	-15.2457	-8.67014	-117.572	-43.7829	29.8218	-98.1714	-26.6482	22.5522	-95.7663	6.94423	28.7892	-165.092	-43.0295	63.2284	-173.595	-33.3395	99.7633	-191.569	-10.7022	68.6459	
107	0.891667	-181.746	29.5219	69.1633	-165.108	47.9898	41.491	-155.249	55.5788	20.8714	-144.502	66.7675	-0.362413	-186.337	-12.4593	-2.7023	-182.467	-23.5051	-28.0094	-173.836	-33.4969	-53.0058	-172.35	-43.1032	-3.09119	-168.944	-50.326	-30.5213	-159.391	-59.4709	-54.2923	-143.146	-49.7053	8.18682	-121.859	-48.1811	-14.7079	-99.3279	-27.0791	-24.3711	-119.633	-48.0857	30.5368	-102.193	-33.9443	19.2768	-91.2987	-5.71413	14.2643	-166.628	-43.5595	63.5393	-174.9	-33.0957	98.2324	-193.272	-11.7575	66.84	
108	0.9	-182.478	30.6679	68.9425	-164.932	47.3649	44.2277	-156.816	59.6488	21.5802	-146.33	70.7523	5.34086	-184.452	-10.44	-4.65172	-180.669	-19.9727	-29.5388	-174.437	-27.1055	-57.1168	-174.407	-39.8484	-4.66906	-169.823	-49.3788	-31.9544	-163.814	-58.2418	-58.4154	-143.487	-51.2531	5.49295	-126.612	-52.324	-16.1227	-102.985	-38.6131	-31.6865	-118.657	-49.5757	32.1762	-98.1872	-39.521	18.5788	-87.4204	-21.4619	4.59347	-169.527	-40.7988	61.8453	-177.733	-33.4857	94.5177	-190.231	-10.6863	64.9014	
109	0.908333	-182.232	30.4512	66.3305	-168.13	53.722	45.6522	-157.021	61.4966	23.5563	-147.985	74.373	3.64125	-181.038	-11.2006	-6.44282	-178.77	-17.0287	-27.8345	-173.062	-24.6245	-52.3296	-173.026	-37.3547	-0.0824229	-171.465	-48.036	-29.883	-163.978	-59.2837	-53.4699	-145.643	-49.9657	7.35224	-127.302	-51.8465	-18.5462	-107.743	-47.2064	-32.5823	-117.296	-51.2568	33.355	-101.436	-42.3713	17.5566	-82.5419	-32.2505	3.43985	-168.756	-39.6723	65.0049	-179.584	-32.1613	96.4323	-192.953	-8.40223	67.2644	
110	0.916667	-184.131	34.4366	70.0972	-168.288	55.5645	44.1692	-158.302	63.6815	22.6838	-149.289	73.9074	5.12592	-181.54	-8.63603	-5.47097	-176.827	-18.1841	-30.8461	-173.787	-24.4813	-51.6391	-173.548	-36.7911	-3.4329	-170.557	-48.354	-29.3026	-166.873	-59.3103	-58.6527	-147.113	-48.1143	7.55237	-130.17	-52.4536	-16.6139	-108.216	-49.4448	-34.089	-120.208	-50.2842	33.8411	-101.941	-45.7091	20.555	-84.8513	-37.1025	4.35974	-168.497	-39.2667	64.6237	-178.28	-32.1744	96.7643	-193.846	-6.63727	66.3891	
111	0.925	-184.166	33.3545	69.4765	-168.787	53.5902	51.2062	-161.068	65.1719	27.3039	-153.02	79.73	10.4747	-182.075	-6.8032	-5.44251	-179.016	-16.024	-28.1177	-174.309	-25.47	-54.0617	-175.147	-35.2727	-3.90073	-169.997	-46.4402	-27.298	-165.213	-58.5317	-56.88	-144.783	-48.6639	8.46896	-128.411	-53.0514	-15.8904	-107.346	-47.2153	-33.0702	-120.894	-51.9269	38.3218	-102.029	-49.7331	23.5514	-80.022	-41.9395	3.47863	-169.291	-37.8325	58.6962	-179.243	-30.3017	94.7035	-191.348	-8.36495	68.1825	
